<svg xmlns="http://www.w3.org/2000/svg" xmlns:xlink="http://www.w3.org/1999/xlink" id="Layer_1" x="0" y="0" version="1.1" viewBox="0 0 150 150" xml:space="preserve" style="enable-background:new 0 0 150 150"><style type="text/css">.st0{display:none}.st1,.st2{display:inline}.st2{fill:url(#SVGID_1_)}.st3{fill:url(#SVGID_2_)}.st4{fill:url(#SVGID_3_)}.st5{fill:url(#SVGID_4_)}.st6{fill:url(#SVGID_5_)}.st7{fill:#fff}.st8{fill:url(#SVGID_6_)}.st9{fill:url(#SVGID_7_)}.st10{fill:url(#SVGID_8_)}.st11{fill:url(#SVGID_9_)}.st12{fill:#3a4061}.st13{fill:#9cce82}.st14{fill:#e6af78}.st15{fill:#d29b6e}.st16{fill:#86aa71}.st17{fill:#333}.st18{fill:#f0c087}.st19{fill:#3f2725}</style><g id="Layer_1_3_"><g class="st0"><g id="Layer_1_2_" class="st1"><g id="Layer_2_1_" class="st0"><linearGradient id="SVGID_1_" x1="93.8" x2="143.543" y1="-201.893" y2="-115.736" gradientTransform="matrix(1 0 0 1 0 50)" gradientUnits="userSpaceOnUse"><stop offset="0" style="stop-color:#be4ff6"/><stop offset="1" style="stop-color:#7a3de3"/></linearGradient><path d="M82.4-75.5c-2.1-2.2-3.7-5.1-4.7-8.2c-3.4-10.7-3.5-22.5-2.9-33.3c0.5-10.2,1.6-21.8,9.9-29 c9.2-8,22.5-8.1,33.8-8.9c7.4-0.4,15,0.4,22.1,2.9c8,2.6,14.9,8.5,18.5,16.1c3.4,6.7,3.9,14.4,4.2,21.7 c0.4,6.4,0.7,12.7,0.4,19.1c-0.4,7.1-2,14.9-6.7,20.5c-7.1,8.1-20.3,9-30.2,10.1c-10.4,1-21,0.7-31.1-2.5 C90.5-68.8,85.8-71.4,82.4-75.5z" class="st2"/></g><linearGradient id="SVGID_2_" x1="152.472" x2="171.878" y1="297.159" y2="263.547" gradientTransform="matrix(1 0 0 -1 0 152)" gradientUnits="userSpaceOnUse"><stop offset="0" style="stop-color:#3d3d3d"/><stop offset="1" style="stop-color:#191919"/></linearGradient><path d="M143.7-117.5c0,0-6.7-23.8,9.2-27c0,0,21-3.1,26.8,4.7c0,0,6.4,2.6,2.1,22.6L143.7-117.5z" class="st3"/></g><g id="Layer_5" class="st1"><g id="Layer_6"><linearGradient id="SVGID_3_" x1="190.587" x2="217.544" y1="258.548" y2="258.548" gradientTransform="matrix(1 0 0 -1 0 152)" gradientUnits="userSpaceOnUse"><stop offset="0" style="stop-color:#a1ffe9"/><stop offset="1" style="stop-color:#4dc7c2"/></linearGradient><polygon points="217.5 -120.1 190.6 -120.1 190.6 -99.5 197.1 -99.5 197.1 -93 205.2 -99.5 217.5 -99.5" class="st4"/></g><linearGradient id="SVGID_4_" x1="120.981" x2="124.197" y1="277.844" y2="272.274" gradientTransform="matrix(0.9897 0.1434 0.1434 -0.9897 -15.8453 135.9829)" gradientUnits="userSpaceOnUse"><stop offset="0" style="stop-color:#ffbc63"/><stop offset=".196" style="stop-color:#ffb861"/><stop offset=".402" style="stop-color:#ffab5a"/><stop offset=".613" style="stop-color:#ff964e"/><stop offset=".825" style="stop-color:#ff793e"/><stop offset="1" style="stop-color:#ff5b2d"/></linearGradient><path d="M146.3-122.1c0,0-3.7-1-3.4,4.6c0,0,0,2.9,2.5,2.1C147.9-116.1,145.8-122.2,146.3-122.1z" class="st5"/><linearGradient id="SVGID_5_" x1="46.611" x2="44.052" y1="265.48" y2="259.068" gradientTransform="matrix(-0.9897 0.1434 -0.1434 -0.9897 262.2854 135.9829)" gradientUnits="userSpaceOnUse"><stop offset="0" style="stop-color:#ffbc63"/><stop offset=".196" style="stop-color:#ffb861"/><stop offset=".402" style="stop-color:#ffab5a"/><stop offset=".613" style="stop-color:#ff964e"/><stop offset=".825" style="stop-color:#ff793e"/><stop offset="1" style="stop-color:#ff5b2d"/></linearGradient><path d="M178.6-120.3c0,0,3.7-1,3.4,4.6c0,0,0,2.9-2.5,2.1C177-114.3,178.9-120.5,178.6-120.3z" class="st6"/><path d="M212.4-111.9h-10.6c-0.7,0-1.2-0.5-1.2-1.2l0,0c0-0.7,0.5-1.2,1.2-1.2h10.6c0.7,0,1.2,0.5,1.2,1.2l0,0 C213.7-112.4,213.2-111.9,212.4-111.9z" class="st7"/><circle cx="196.6" cy="-113.1" r="1.4" class="st7"/><path d="M207.2-106.6h-10.6c-0.7,0-1.2-0.5-1.2-1.2l0,0c0-0.7,0.5-1.2,1.2-1.2h10.6c0.7,0,1.2,0.5,1.2,1.2l0,0 C208.4-107.1,207.8-106.6,207.2-106.6z" class="st7"/><circle cx="212.4" cy="-107.7" r="1.4" class="st7"/></g><g id="Layer_7" class="st1"><linearGradient id="SVGID_6_" x1="151.374" x2="175.639" y1="243.197" y2="243.197" gradientTransform="matrix(1 0 0 -1 0 152)" gradientUnits="userSpaceOnUse"><stop offset="0" style="stop-color:#3d3d3d"/><stop offset="1" style="stop-color:#191919"/></linearGradient><polygon points="151.4 -103.2 151.4 -93 162.9 -79.2 175.7 -93 174.1 -103.2" class="st8"/></g><g id="Layer_3_1_" class="st1"><linearGradient id="SVGID_7_" x1="145.727" x2="179.914" y1="265.724" y2="265.724" gradientTransform="matrix(1 0 0 -1 0 152)" gradientUnits="userSpaceOnUse"><stop offset="0" style="stop-color:#ffbc63"/><stop offset=".196" style="stop-color:#ffb861"/><stop offset=".402" style="stop-color:#ffab5a"/><stop offset=".613" style="stop-color:#ff964e"/><stop offset=".825" style="stop-color:#ff793e"/><stop offset="1" style="stop-color:#ff5b2d"/></linearGradient><path d="M145.8-118.7c0,0.7,0,1.2,0,1.7c0.1,3.7-0.4,8,1,11.5c1,2.2,2.6,4.2,4.6,6c2.6,2.2,4.4,3.9,8,3.9 c5.2,0,11-1.2,15.2-4.6c4.6-3.7,5.6-9.7,5.2-15.4c-0.1-1.6-3.9-16.2-3.7-16.2c0,0-11.5,5.5-27.2,6 C146-125.6,145.8-121.6,145.8-118.7z" class="st9"/><linearGradient id="SVGID_8_" x1="190.372" x2="208.777" y1="247.386" y2="247.386" gradientTransform="matrix(0.9814 -0.1917 -0.1917 -0.9814 23.2977 172.565)" gradientUnits="userSpaceOnUse"><stop offset="0" style="stop-color:#3d3d3d"/><stop offset="1" style="stop-color:#191919"/></linearGradient><path d="M170.1-108.5c0,0-1.2-2.2-4.2-1.4c0,0-4.1,0.9-2.9,4.6c0,0,0.9,2.9,4.2,2c0,0,2.6-0.1,3.4-2.6 c0,0,5-1.4,7.7-3.1c0,0,1.6-1.2,2.1-2.9l-0.5-2.6C180-114.5,177.9-110.1,170.1-108.5z" class="st10"/></g><g id="Layer_2_2_" class="st1"><linearGradient id="SVGID_9_" x1="126.562" x2="198.964" y1="235.139" y2="235.139" gradientTransform="matrix(1 0 0 -1 0 152)" gradientUnits="userSpaceOnUse"><stop offset="0" style="stop-color:#63d1fe"/><stop offset=".188" style="stop-color:#5aa9f3"/><stop offset=".458" style="stop-color:#4e75e5"/><stop offset=".693" style="stop-color:#464fdb"/><stop offset=".882" style="stop-color:#4138d4"/><stop offset="1" style="stop-color:#3f2fd2"/><stop offset="1" style="stop-color:#3e2ad1"/><stop offset="1" style="stop-color:#3d28d0"/></linearGradient><path d="M198.7-74.3c-0.7,5-6.1,4.7-10.1,4.7c-6.9-0.1-13.7-0.1-20.6-0.1c-12.4,0-24.6,0-36.9,0 c-5,0-4.6-5.6-4.4-9.4c0.2-3.7,1.2-8,4.7-9.7c5-2.5,12.4-1,16.1-5.2c0.5-0.7,1.2-1.7,2-2.2c0.1-0.1,0.5-0.4,0.7-0.4l0,0 c0.1,0,0.1,0,0.4,0h0.1c1,0.4,3,2.9,3.7,3.4c2.6,2.5,5.5,5,8.1,7.4l0,0c0.5,0,7.7-7.1,8.2-7.6c0.9-0.7,1.6-1.7,2.5-2.2 c0.1-0.1,0.4-0.1,0.4-0.4c0.9-0.7,0.9-0.9,2.1,0c1.4,0.9,2.1,2.6,3.4,3.7c3.4,2.5,9.9,2.6,14,3.4C199.3-87.6,199.3-79,198.7-74.3 z" class="st11"/></g><g id="Layer_8" class="st1"><path d="M162.6-85.8l-7.4,4.6l-5.9-15.2l-0.1-0.4h0.9h0.5c1,0.4,3,2.9,3.7,3.4C157.4-90.9,160-88.1,162.6-85.8z" class="st7"/><path d="M176.1-96l-6.9,14.9l-6.5-4.6c0.5,0,7.7-7.1,8.2-7.6c0.9-0.7,0.1,0,2.5-2.2C175.7-97.9,176.1-96,176.1-96z" class="st7"/></g></g><g id="Layer_5_1_"><g id="Layer_6_1_"><polygon points="145.2 66.6 113.1 66.6 113.1 91.1 120.8 91.1 120.8 98.8 130.6 91.1 145.2 91.1" class="st12"/></g><path d="M139,76.5h-12.5c-0.9,0-1.4-0.7-1.4-1.4l0,0c0-0.9,0.7-1.4,1.4-1.4H139c0.9,0,1.4,0.7,1.4,1.4l0,0 C140.7,75.7,139.9,76.5,139,76.5z" class="st13"/><circle cx="120.2" cy="74.9" r="1.6" class="st13"/><path d="M132.8,82.6h-12.5c-0.9,0-1.4-0.7-1.4-1.4l0,0c0-0.9,0.7-1.4,1.4-1.4h12.5c0.9,0,1.4,0.7,1.4,1.4l0,0 C134.3,82.1,133.6,82.6,132.8,82.6z" class="st13"/><circle cx="139" cy="81.2" r="1.6" class="st13"/></g><path d="M85.8,98.2V85.1H45.4v13.1c0,2.5-1.6,4.7-4.1,5.5l-25.2,7.7c-4.7,1.4-8.1,6-8.1,11V134c0,3.1,2.6,5.9,5.9,5.9 h103.5c3.1,0,5.9-2.6,5.9-5.9v-11.6c0-5.1-3.4-9.5-8.1-11l-25.2-7.7C87.5,102.9,85.8,100.8,85.8,98.2z" class="st14"/><path d="M42.3,103.4c27.3,9.2,43.4-16.2,43.4-16.2v-2H45.4v13.1C45.4,100.4,44.3,102.4,42.3,103.4z" class="st15"/><path d="M115.1,111.4L93,104.6c-3.7,5.2-14.5,20-27.2,22.2c-12.9-2.2-23.5-17-27.2-22.2l-22.1,6.9 c-4.7,1.4-8.1,6-8.1,11V134c0,3.1,2.6,5.9,5.9,5.9h103.5c3.1,0,5.9-2.6,5.9-5.9v-11.6C123.2,117.4,119.8,113,115.1,111.4z" class="st16"/><g><path d="M25.2,125.6l-13.6-11.2c-2.1,2.1-3.4,5-3.4,8.1v11.6c0,3.1,2.6,5.9,5.9,5.9h14.4v-7.5 C28.3,129.8,27.1,127.4,25.2,125.6z" class="st13"/><path d="M123.2,134.1v-11.6c0-3.1-1.2-6-3.4-8.1l-13.6,11.2c-2,1.6-3.1,4.1-3.1,6.7v7.4h14.4 C120.4,139.8,123.2,137.4,123.2,134.1z" class="st13"/></g><g><path d="M35.6,56.5h-3.7c-1.6,0-2.9,1.2-2.9,2.9v11.5c0,1.6,1.2,2.9,2.9,2.9h6.5L35.6,56.5z" class="st17"/><path d="M100.2,56.5h-4.4L93,73.9h7.2c1.6,0,2.9-1.2,2.9-2.9V59.4C103,57.8,101.7,56.5,100.2,56.5z" class="st17"/></g><path d="M76.8,94.8l11.5-9.5c2.1-1.7,3.5-4.2,4.1-7.1l6.5-40.9c2.2-14-8.5-26.7-22.7-26.7h-21 c-14.1,0-24.8,12.7-22.7,26.7L39,78.2c0.4,2.9,2,5.2,4.1,7.1l11.5,9.5c1.6,1.2,3.5,2,5.5,2h11C73.1,96.7,75.1,96.1,76.8,94.8z" class="st18"/><path d="M59.9,47.9h28.7V36.4H33.3c-0.1,0.4-0.4,0.5-0.7,0.7l6.5,40.9c0.4,2.9,2,5.2,4.1,7.1l11.5,9.5 c1.6,1.2,3.5,2,5.5,2h2.6L58,82.6c-0.7-2.1-1-4.2-1-6.4V50.6C57.2,49.1,58.4,47.9,59.9,47.9z" class="st14"/><path d="M76,10.5H65.7H55.3c-14.1,0-24.8,12.7-22.7,26.7l3.1,19.5h4.6c1.4,0,2.6-1,2.9-2.5l2.1-12.4 c0.1-1.4,1.4-2.5,2.9-2.5h35.3c1.4,0,2.6,1,2.9,2.5l2.1,12.4c0.1,1.4,1.4,2.5,2.9,2.5H96l3.1-19.5C101.1,23.2,90.1,10.5,76,10.5z" class="st19"/><circle cx="55.7" cy="59" r="2.2" class="st17"/><circle cx="76.1" cy="59" r="2.2" class="st17"/><path d="M65.7,137c0.5,0,0.9,0,1.4-0.1c0.9-0.1,21.3-3.9,34.8-27.2c0.4-0.7,0.5-1.2,0.7-2l-9.7-3 c-3.7,5.2-14.5,20-27.2,22.2c-12.9-2.2-23.5-17-27.2-22.2l-9.7,3c0.1,0.7,0.4,1.4,0.7,2c13.4,23.5,33.8,27,34.8,27.2 C64.8,137,65.3,137,65.7,137z" class="st13"/></g><g id="Layer_2_3_"><path d="M97.9,61.6c-1.6,11.6-11,20.6-22.2,20.6h-1.2c-0.1,2.1-2,3.5-3.9,3.5h-3.4c-2.1,0-3.9-2-3.9-4.1 c0-2.2,1.7-4.1,3.9-4.1h3.4c1.6,0,2.9,1,3.5,2.5h1.6c10.2,0,18.5-8,20.1-18.3C95.6,61.7,97.9,61.6,97.9,61.6z" class="st17"/></g></svg>