<svg xmlns="http://www.w3.org/2000/svg" xmlns:xlink="http://www.w3.org/1999/xlink" id="Layer_1" x="0" y="0" version="1.1" viewBox="0 0 150 150" xml:space="preserve" style="enable-background:new 0 0 150 150"><style type="text/css">.st0{fill:#3a4061}.st1{fill:#474f72}.st2{fill:#fff}.st3{fill:#9cce82}.st4{fill:#ededed}.st5{fill:#ffd15c}.st6{fill:#f8b64c}</style><g id="Layer_3_1_"><polyline points="25 6.5 25 125.1 118.1 125.1 118.1 34.7 89.7 6.5 25 6.5 25 6.5" class="st0"/><rect width="42.7" height="118.5" x="25" y="6.5" class="st1"/><path d="M84.4,55.1H54.5c-2,0-3.5-1.5-3.5-3.5l0,0c0-2,1.5-3.5,3.5-3.5h30c2,0,3.5,1.5,3.5,3.5l0,0 C88.2,53.6,86.5,55.1,84.4,55.1z" class="st2"/><path d="M73.1,87.1H52.2c-2,0-3.5-1.5-3.5-3.5l0,0c0-2,1.5-3.5,3.5-3.5h20.9c2,0,3.5,1.5,3.5,3.5l0,0 C76.6,85,75.1,87.1,73.1,87.1z" class="st2"/><path d="M73.1,70.9H52.2c-2,0-3.5-1.5-3.5-3.5l0,0c0-2,1.5-3.5,3.5-3.5h20.9c2,0,3.5,1.5,3.5,3.5l0,0 C76.6,69.2,75.1,70.9,73.1,70.9z" class="st2"/><circle cx="39.4" cy="51.5" r="3.8" class="st2"/><path d="M61,20.6l-3.3-3.2c-0.5-0.5-1.2-0.5-1.5,0l-7.8,7.6l-4.3,4.3l-3.3-3.3c-0.3-0.3-0.5-0.3-0.8-0.3 s-0.5,0-0.8,0.3l-3.3,3.3c-0.5,0.5-0.5,1.2,0,1.5l7.6,7.6c0.3,0.3,0.5,0.3,0.8,0.3s0.5,0,0.8-0.3l3.5-3.5l12.7-12.7 c0.3-0.3,0.3-0.5,0.3-0.8C61.3,21.1,61.3,20.9,61,20.6z" class="st3"/><circle cx="39.4" cy="67.1" r="3.8" class="st2"/><circle cx="39.4" cy="83.3" r="3.8" class="st4"/><path d="M60,103.1H39.1c-2,0-3.5-1.5-3.5-3.5l0,0c0-2,1.5-3.5,3.5-3.5H60c2,0,3.5,1.5,3.5,3.5l0,0 C63.6,101.4,62.1,103.1,60,103.1z" class="st2"/></g><circle cx="101.5" cy="108.4" r="23.4" class="st5"/><g><path d="M82.7,122.1l-8,13.8l9.3-0.5l4.3,8.3l7.3-12.9C90.3,129.5,85.7,126.6,82.7,122.1z" class="st1"/><path d="M120.4,122.1c-3,4.3-7.6,7.6-13.1,9.1l7.6,12.9l4.3-8.3l9.3,0.5L120.4,122.1z" class="st1"/></g><circle cx="101.5" cy="108.4" r="16.8" class="st6"/><path d="M113.1,106.6c0.5-0.5,0.3-1.5-0.5-1.5l-6.5-1c-0.3,0-0.5-0.3-0.8-0.5l-3-6.1c-0.3-0.8-1.2-0.8-1.5,0l-3,6.1	c-0.3,0.3-0.5,0.5-0.8,0.5l-6.5,1c-0.8,0-1,1-0.5,1.5l4.8,4.8c0.3,0.3,0.3,0.5,0.3,0.8l-1,6.5c-0.3,0.8,0.8,1.2,1.2,1l6.1-3	c0.3-0.3,0.5-0.3,0.8,0l6.1,3c0.8,0.3,1.5-0.3,1.2-1l-1.2-6.5c0-0.3,0-0.5,0.3-0.8L113.1,106.6z" class="st2"/></svg>