<svg xmlns="http://www.w3.org/2000/svg" xmlns:xlink="http://www.w3.org/1999/xlink" width="48" height="49" version="1.1" viewBox="0 0 48 49"><title>file-green</title><desc>Created with Sketch.</desc><defs><rect id="path-1" width="40" height="39.216" x="5" y="5.882" rx="10"/><filter id="filter-2" width="132.5%" height="133.2%" x="-16.2%" y="-14%" filterUnits="objectBoundingBox"><feOffset dx="0" dy="1" in="SourceAlpha" result="shadowOffsetOuter1"/><feGaussianBlur in="shadowOffsetOuter1" result="shadowBlurOuter1" stdDeviation="2"/><feColorMatrix in="shadowBlurOuter1" type="matrix" values="0 0 0 0 0 0 0 0 0 0 0 0 0 0 0 0 0 0 0.271625906 0"/></filter></defs><g id="Page-1" fill="none" fill-rule="evenodd" stroke="none" stroke-width="1"><g id="file-green" transform="translate(-1.000000, -2.000000)"><g id="Rectangle-Copy-3"><use fill="#000" fill-opacity="1" filter="url(#filter-2)" xlink:href="#path-1"/><use fill="#2A2A2A" fill-rule="evenodd" xlink:href="#path-1"/></g><path id="Shape" fill="#94C37E" fill-rule="nonzero" d="M36.6470588,18.6182573 C36.5882353,18.5062241 36.4705882,18.3381743 36.3529412,18.2261411 L35.9411765,17.8340249 L29.4705882,11.560166 L29.4705882,11.560166 C29.0588235,11.1680498 28.5882353,11 28,11 L16.2352941,11 C16.2352941,11 16.2352941,11 16.2352941,11 C15.7058824,11 15.1764706,11.2240664 14.7647059,11.560166 C14.3529412,11.9522822 14.1764706,12.4004149 14.1764706,12.9045643 L14,36.0394191 C14,37.1037344 14.9411765,38 16.0588235,38 L35.3529412,38 C36.1176471,38 37,37.6639004 37,36.0394191 L37,19.6825726 C37,19.2904564 36.8823529,18.9543568 36.6470588,18.6182573 Z M28,13 L33.9433962,18.9423077 L34,19 L28,19 L28,13 Z M34.940625,36 L16,36 L16.2375,13 L26.153125,13 L26.153125,19.5073171 C26.153125,20.5170732 26.984375,21.302439 28.053125,21.302439 L35,21.302439 L35,36 L34.940625,36 Z"/><path id="Shape" fill="#94C37E" fill-rule="nonzero" d="M22,28.4875873 C22,28.2112878 22.2275407,28 22.4875873,28 C22.6176106,28 22.7476339,28.0487587 22.8288984,28.1462762 L25.5918932,31.0230413 L28.354888,28.1462762 C28.5499229,27.9512413 28.8587282,27.9512413 29.0375102,28.1462762 C29.2162922,28.3250582 29.2325451,28.6176106 29.0537631,28.8126455 L25.9494572,32.0632276 C25.7706752,32.2582625 25.4618699,32.2582625 25.266835,32.0794805 L25.2505821,32.0632276 L22.1300233,28.8126455 C22.0487587,28.731381 22,28.6176106 22,28.4875873 Z"/><path id="Line" stroke="#94C37E" stroke-linecap="square" d="M25.5,22.5 L25.5,30.5"/></g></g></svg>