<svg xmlns="http://www.w3.org/2000/svg" xmlns:xlink="http://www.w3.org/1999/xlink" id="Layer_1" x="0" y="0" version="1.1" viewBox="0 0 150 150" xml:space="preserve" style="enable-background:new 0 0 150 150"><style type="text/css">.st0{display:none}.st1{display:inline;fill:url(#SVGID_1_)}.st2{fill:url(#SVGID_2_)}.st2,.st3,.st4{display:inline}.st3{fill:url(#SVGID_3_)}.st4{fill:url(#SVGID_4_)}.st5{fill:url(#SVGID_5_)}.st5,.st6,.st7{display:inline}.st6{fill:url(#SVGID_6_)}.st7{fill:url(#SVGID_7_)}.st10,.st8,.st9{display:inline}.st8,.st9{fill:#555162}.st9{fill:url(#SVGID_8_)}.st10{fill:url(#SVGID_9_)}.st11{fill:url(#SVGID_10_)}.st11,.st12,.st13{display:inline}.st12{fill:url(#SVGID_11_)}.st13{fill:url(#SVGID_12_)}.st14{fill:url(#SVGID_13_)}.st14,.st15,.st16{display:inline}.st15{fill:url(#SVGID_14_)}.st16{fill:url(#SVGID_15_)}.st17{fill:#ffc255}.st18{fill:#3a4061}.st19{fill:#ededed}.st20{fill:#ff9c43}.st21{fill:#9cce82}.st22{fill:#9cf}.st23{fill:#fff}</style><g id="Layer_2_2_"><g class="st0"><linearGradient id="SVGID_1_" x1="105.618" x2="142.557" y1="224.951" y2="160.971" gradientTransform="matrix(1 0 0 -1 0 152)" gradientUnits="userSpaceOnUse"><stop offset="0" style="stop-color:#63d1fe"/><stop offset=".188" style="stop-color:#5aa9f3"/><stop offset=".458" style="stop-color:#4e75e5"/><stop offset=".693" style="stop-color:#464fdb"/><stop offset=".882" style="stop-color:#4138d4"/><stop offset="1" style="stop-color:#3f2fd2"/><stop offset="1" style="stop-color:#3e2ad1"/><stop offset="1" style="stop-color:#3d28d0"/></linearGradient><path d="M189.2-35.9H60.5v-5.3c0-5.5,4.3-9.8,9.8-9.8h108.8c5.5,0,9.8,4.3,9.8,9.8v5.3 C188.9-35.9,189.2-35.9,189.2-35.9z" class="st1"/><linearGradient id="SVGID_2_" x1="69.475" x2="73.483" y1="195.5" y2="195.5" gradientTransform="matrix(1 0 0 -1 0 152)" gradientUnits="userSpaceOnUse"><stop offset="0" style="stop-color:#fff"/><stop offset="1" style="stop-color:#eee"/></linearGradient><circle cx="71.5" cy="-43.5" r="2" class="st2"/><linearGradient id="SVGID_3_" x1="76.033" x2="80.041" y1="195.5" y2="195.5" gradientTransform="matrix(1 0 0 -1 0 152)" gradientUnits="userSpaceOnUse"><stop offset="0" style="stop-color:#fff"/><stop offset="1" style="stop-color:#eee"/></linearGradient><circle cx="78" cy="-43.5" r="2" class="st3"/><linearGradient id="SVGID_4_" x1="82.591" x2="86.599" y1="195.5" y2="195.5" gradientTransform="matrix(1 0 0 -1 0 152)" gradientUnits="userSpaceOnUse"><stop offset="0" style="stop-color:#fff"/><stop offset="1" style="stop-color:#eee"/></linearGradient><circle cx="84.7" cy="-43.5" r="2" class="st4"/><linearGradient id="SVGID_5_" x1="93.6" x2="181.3" y1="195.7" y2="195.7" gradientTransform="matrix(1 0 0 -1 0 152)" gradientUnits="userSpaceOnUse"><stop offset="0" style="stop-color:#63d1fe"/><stop offset=".576" style="stop-color:#5aa9f3"/><stop offset="1" style="stop-color:#4138d4"/><stop offset="1" style="stop-color:#464fdb"/><stop offset="1" style="stop-color:#4e75e5"/><stop offset="1" style="stop-color:#3f2fd2"/><stop offset="1" style="stop-color:#3e2ad1"/><stop offset="1" style="stop-color:#3d28d0"/></linearGradient><path d="M178-40H96.9c-1.8,0-3.3-1.4-3.3-3.3v-0.8c0-1.8,1.4-3.3,3.3-3.3H178c1.8,0,3.3,1.4,3.3,3.3v0.8 C181.3-41.4,179.9-40,178-40z" class="st5"/></g><g class="st0"><linearGradient id="SVGID_6_" x1="61.356" x2="106.021" y1="193.714" y2="116.352" gradientTransform="matrix(1 0 0 -1 0 152)" gradientUnits="userSpaceOnUse"><stop offset="0" style="stop-color:#ffbc63"/><stop offset=".196" style="stop-color:#ffb861"/><stop offset=".402" style="stop-color:#ffab5a"/><stop offset=".613" style="stop-color:#ff964e"/><stop offset=".825" style="stop-color:#ff793e"/><stop offset="1" style="stop-color:#ff5b2d"/></linearGradient><path d="M97.1,39.3H70.4c-5.5,0-9.8-4.3-9.8-9.8v-65.2c0-5.5,4.3-9.8,9.8-9.8h26.5c5.5,0,9.8,4.3,9.8,9.8v65.2 C106.9,35,102.4,39.3,97.1,39.3z" class="st6"/><linearGradient id="SVGID_7_" x1="116.131" x2="169.577" y1="198.137" y2="105.566" gradientTransform="matrix(1 0 0 -1 0 152)" gradientUnits="userSpaceOnUse"><stop offset="0" style="stop-color:#fff"/><stop offset="1" style="stop-color:#eee"/></linearGradient><path d="M179.3,39.3H98.4v-75.2h90.7v65.4C189.2,35,184.6,39.3,179.3,39.3z" class="st7"/><path d="M178.4,21.1h-68.9c-2.2,0-3.9-1.8-3.9-3.9v-39.5c0-2.2,1.8-3.9,3.9-3.9h68.9c2.2,0,3.9,1.8,3.9,3.9v39.5 C182.3,19.3,180.5,21.1,178.4,21.1z" class="st8"/><linearGradient id="SVGID_8_" x1="164.745" x2="173.296" y1="130.171" y2="115.359" gradientTransform="matrix(1 0 0 -1 0 152)" gradientUnits="userSpaceOnUse"><stop offset="0" style="stop-color:#ffbc63"/><stop offset="0" style="stop-color:#ffb861"/><stop offset="0" style="stop-color:#ffab5a"/><stop offset=".225" style="stop-color:#ff964e"/><stop offset=".825" style="stop-color:#ff793e"/><stop offset="1" style="stop-color:#ff5b2d"/></linearGradient><path d="M179.2,32.7h-20.4c-1.8,0-3.1-1.4-3.1-3.1v-0.8c0-1.8,1.4-3.1,3.1-3.1h20.4c1.8,0,3.1,1.4,3.1,3.1v0.8 C182.3,31.3,180.9,32.7,179.2,32.7z" class="st9"/><linearGradient id="SVGID_9_" x1="112.379" x2="139.045" y1="170.2" y2="170.2" gradientTransform="matrix(1 0 0 -1 0 152)" gradientUnits="userSpaceOnUse"><stop offset="0" style="stop-color:#ffbc63"/><stop offset=".538" style="stop-color:#ffbc63"/><stop offset="1" style="stop-color:#ff793e"/><stop offset="1" style="stop-color:#ff964e"/><stop offset="1" style="stop-color:#ffab5a"/><stop offset="1" style="stop-color:#ffb861"/><stop offset="1" style="stop-color:#ff5b2d"/></linearGradient><path d="M137.3-16.2h-23.2c-1,0-1.8-0.8-1.8-1.8v-0.4c0-1,0.8-1.8,1.8-1.8h23.2c1,0,1.8,0.8,1.8,1.8v0.4 C139.1-17,138.3-16.2,137.3-16.2z" class="st10"/><linearGradient id="SVGID_10_" x1="119.911" x2="169.339" y1="162.8" y2="162.8" gradientTransform="matrix(1 0 0 -1 0 152)" gradientUnits="userSpaceOnUse"><stop offset="0" style="stop-color:#86d63f"/><stop offset="0" style="stop-color:#c3ef95"/><stop offset="1" style="stop-color:#86c64a"/></linearGradient><path d="M167.6-8.8h-46c-1,0-1.8-0.8-1.8-1.8V-11c0-1,0.8-1.8,1.8-1.8h46c1,0,1.8,0.8,1.8,1.8v0.4 C169.3-9.6,168.5-8.8,167.6-8.8z" class="st11"/><linearGradient id="SVGID_11_" x1="137.909" x2="151.313" y1="166.889" y2="143.672" gradientTransform="matrix(1 0 0 -1 0 152)" gradientUnits="userSpaceOnUse"><stop offset="0" style="stop-color:#ffbc63"/><stop offset=".538" style="stop-color:#ffbc63"/><stop offset="1" style="stop-color:#ff793e"/><stop offset="1" style="stop-color:#ff964e"/><stop offset="1" style="stop-color:#ffab5a"/><stop offset="1" style="stop-color:#ffb861"/><stop offset="1" style="stop-color:#ff5b2d"/></linearGradient><path d="M167.6-1.3h-46c-1,0-1.8-0.8-1.8-1.8v-0.4c0-1,0.8-1.8,1.8-1.8h46c1,0,1.8,0.8,1.8,1.8v0.4 C169.3-2.1,168.5-1.3,167.6-1.3z" class="st12"/><linearGradient id="SVGID_12_" x1="140.024" x2="147.25" y1="155.193" y2="142.678" gradientTransform="matrix(1 0 0 -1 0 152)" gradientUnits="userSpaceOnUse"><stop offset="0" style="stop-color:#63d1fe"/><stop offset=".576" style="stop-color:#5aa9f3"/><stop offset="1" style="stop-color:#4138d4"/><stop offset="1" style="stop-color:#464fdb"/><stop offset="1" style="stop-color:#4e75e5"/><stop offset="1" style="stop-color:#3f2fd2"/><stop offset="1" style="stop-color:#3e2ad1"/><stop offset="1" style="stop-color:#3d28d0"/></linearGradient><path d="M154.2,5H133c-1,0-1.8-0.8-1.8-1.8V2.8c0-1,0.8-1.8,1.8-1.8h21.2c1,0,1.8,0.8,1.8,1.8v0.4 C156,4.2,155.2,5,154.2,5z" class="st13"/><linearGradient id="SVGID_13_" x1="66.32" x2="92.986" y1="178.3" y2="178.3" gradientTransform="matrix(1 0 0 -1 0 152)" gradientUnits="userSpaceOnUse"><stop offset="0" style="stop-color:#ffbc63"/><stop offset="0" style="stop-color:#ffbc63"/><stop offset="1" style="stop-color:#ff793e"/><stop offset="1" style="stop-color:#ff964e"/><stop offset="1" style="stop-color:#ffab5a"/><stop offset="1" style="stop-color:#ffb861"/><stop offset="1" style="stop-color:#ff5b2d"/></linearGradient><path d="M91.2-24.3H68c-1,0-1.8-0.8-1.8-1.8v-0.4c0-1,0.8-1.8,1.8-1.8h23.2c1,0,1.8,0.8,1.8,1.8v0.4 C92.9-25.1,92.2-24.3,91.2-24.3z" class="st14"/><linearGradient id="SVGID_14_" x1="66.32" x2="92.986" y1="171.8" y2="171.8" gradientTransform="matrix(1 0 0 -1 0 152)" gradientUnits="userSpaceOnUse"><stop offset="0" style="stop-color:#ffbc63"/><stop offset="0" style="stop-color:#ffbc63"/><stop offset="1" style="stop-color:#ff793e"/><stop offset="1" style="stop-color:#ff964e"/><stop offset="1" style="stop-color:#ffab5a"/><stop offset="1" style="stop-color:#ffb861"/><stop offset="1" style="stop-color:#ff5b2d"/></linearGradient><path d="M91.2-17.8H68c-1,0-1.8-0.8-1.8-1.8V-20c0-1,0.8-1.8,1.8-1.8h23.2c1,0,1.8,0.8,1.8,1.8v0.4 C92.9-18.6,92.2-17.8,91.2-17.8z" class="st15"/><linearGradient id="SVGID_15_" x1="66.32" x2="92.986" y1="165.5" y2="165.5" gradientTransform="matrix(1 0 0 -1 0 152)" gradientUnits="userSpaceOnUse"><stop offset="0" style="stop-color:#ffbc63"/><stop offset="0" style="stop-color:#ffbc63"/><stop offset="1" style="stop-color:#ff793e"/><stop offset="1" style="stop-color:#ff964e"/><stop offset="1" style="stop-color:#ffab5a"/><stop offset="1" style="stop-color:#ffb861"/><stop offset="1" style="stop-color:#ff5b2d"/></linearGradient><path d="M91.2-11.5H68c-1,0-1.8-0.8-1.8-1.8v-0.4c0-1,0.8-1.8,1.8-1.8h23.2c1,0,1.8,0.8,1.8,1.8v0.4 C92.9-12.3,92.2-11.5,91.2-11.5z" class="st16"/></g><path d="M48,123H21.3c-5.5,0-9.8-4.3-9.8-9.8V48c0-5.5,4.3-9.8,9.8-9.8h26.5c5.5,0,9.8,4.3,9.8,9.8v65.2 C57.8,118.5,53.3,123,48,123z" class="st17"/><path d="M139.9,47.8H11.4v-5.3c0-5.5,4.3-9.8,9.8-9.8H130c5.5,0,9.8,4.3,9.8,9.8L139.9,47.8L139.9,47.8z" class="st18"/><path d="M130.1,123h-81V47.8h90.7v65.4C139.9,118.5,135.6,123,130.1,123z" class="st19"/><path d="M129.3,104.7h-69c-2.2,0-3.9-1.8-3.9-3.9V61.3c0-2.2,1.8-3.9,3.9-3.9h68.9c2.2,0,3.9,1.8,3.9,3.9v39.5 C133.2,103,131.4,104.7,129.3,104.7z" class="st18"/><path d="M130.1,116.3h-20.4c-1.8,0-3.1-1.4-3.1-3.1v-0.8c0-1.8,1.4-3.1,3.1-3.1h20.4c1.8,0,3.1,1.4,3.1,3.1v0.8 C133.2,114.9,131.8,116.3,130.1,116.3z" class="st20"/><path d="M88.2,67.4H65c-1,0-1.8-0.8-1.8-1.8v-0.4c0-1,0.8-1.8,1.8-1.8h23.2c1,0,1.8,0.8,1.8,1.8v0.4 C90,66.6,89.2,67.4,88.2,67.4z" class="st20"/><path d="M118.5,74.9h-46c-1,0-1.8-0.8-1.8-1.8v-0.4c0-1,0.8-1.8,1.8-1.8h46c1,0,1.8,0.8,1.8,1.8v0.4 C120.2,74.1,119.4,74.9,118.5,74.9z" class="st21"/><path d="M118.5,82.3h-46c-1,0-1.8-0.8-1.8-1.8v-0.4c0-1,0.8-1.8,1.8-1.8h46c1,0,1.8,0.8,1.8,1.8v0.4 C120.2,81.6,119.4,82.3,118.5,82.3z" class="st20"/><path d="M105.1,90.6H83.9c-1,0-1.8-0.8-1.8-1.8v-0.4c0-1,0.8-1.8,1.8-1.8h21.2c1,0,1.8,0.8,1.8,1.8v0.4 C106.9,89.8,106.1,90.6,105.1,90.6z" class="st22"/><circle cx="22.4" cy="40.1" r="2" class="st23"/><circle cx="28.9" cy="40.1" r="2" class="st23"/><circle cx="35.4" cy="40.1" r="2" class="st23"/></g></svg>