<svg xmlns="http://www.w3.org/2000/svg" xmlns:xlink="http://www.w3.org/1999/xlink" id="Layer_1" x="0" y="0" version="1.1" viewBox="0 0 150 150" xml:space="preserve" style="enable-background:new 0 0 150 150"><style type="text/css">.st0{fill:#474f72}.st1{fill:#3a4061}.st2{fill:#cdd6e0}.st3{fill:#f2f2f2}.st4{fill:#acb3ba}.st5{fill:#9eacb7}.st6{fill:#fff}.st7{fill:#e4eaf8}.st8{fill:#ffc255}.st9{fill:#c7cfe2}.st10{fill:#ff9c43}.st11{fill:#694b4b}.st12{fill:#5a4146}.st13{fill:#d29b6e}.st14{fill:#f0c087}.st15{fill:#e6af78}.st16{fill:#d5dced}.st17{fill:#86aa71}</style><path d="M74.2,23.2c0-2.2-0.9-4-2.2-4H13.6c-1.5,0-2.6,2.2-2.6,4.9v76.1h63v-77C74,23.2,74.2,23.2,74.2,23.2z" class="st0"/><path d="M129.6,23.2c0-2.2-0.9-4-2.2-4H65.2L62.3,24c0,0,0,50.3,0,76.3h67.3V23.2z" class="st1"/><path d="M11.2,100.3v9.5c0,2.6,2.2,4.9,4.9,4.9h108.7c2.6,0,4.9-2.2,4.9-4.9v-9.5H11.2z" class="st2"/><g><circle cx="119" cy="107.6" r="2.6" class="st3"/><circle cx="108.2" cy="107.6" r="2.6" class="st3"/></g><polygon points="94.9 129.2 45.6 129.2 51.1 118.4 52.6 114.7 88.1 114.7 89.7 118.4" class="st4"/><path d="M99.1,129.2H41.4c-2.4,0-4.4,2-4.4,4.4s2,4.4,4.4,4.4h57.8c2.4,0,4.4-2,4.4-4.4	C103.8,131.2,101.8,129.2,99.1,129.2z" class="st2"/><polygon points="89.7 118.4 51.1 118.4 52.6 114.7 88.1 114.7" class="st5"/><rect width="102.8" height="66.4" x="18.9" y="26.5" class="st6"/><path d="M89,75.4v2.9c0,0.9-0.7,1.8-1.5,2.2L76,85.4c-0.7,0.2-1.1,0.9-1.1,1.8l0,0c0,1.1,0.9,1.8,1.8,1.8H113	c1.1,0,1.8-0.9,1.8-1.8l0,0c0-0.7-0.4-1.3-1.1-1.8l-11.5-4.9c-0.9-0.4-1.5-1.3-1.5-2.2v-2.9" class="st7"/><rect width="45" height="3.7" x="38.3" y="73.2" class="st8"/><g><polygon points="71.8 77 83.3 77 83.3 73.2 71.4 73.2" class="st8"/><path d="M38.3,77h7.3c0.2-0.7,0.2-1.3,0.2-2s0-1.3-0.2-2h-7.3V77z" class="st8"/></g><path d="M25.1,73.2c-1.1,0-2,0.9-2,2s0.9,2,2,2h13.2v-3.7L25.1,73.2L25.1,73.2z" class="st9"/><g><circle cx="38.3" cy="75" r="3.7" class="st10"/><path d="M68.3,65.7H45.8c-4.2,0-7.5-3.3-7.5-7.5v-15c0-4.2,3.3-7.5,7.5-7.5h22.5c4.2,0,7.5,3.3,7.5,7.5v15 C75.8,62.2,72.5,65.7,68.3,65.7z" class="st10"/></g><path d="M51.3,46.1v9c0,1.3,1.5,2.2,2.6,1.8l9-4.4c1.3-0.7,1.3-2.6,0-3.3l-9-4.4C52.8,43.9,51.3,44.8,51.3,46.1z" class="st6"/><path d="M94.9,44.1c-13.5,0-16.5,13.7-16.8,30.4c0,0.7,0.4,1.3,1.1,1.5c2.4,1.1,5.3,2,8.6,2.4H102	c3.3-0.4,6.2-1.3,8.6-2.4c0.7-0.2,1.1-0.9,1.1-1.5C111.7,57.5,108.6,44.1,94.9,44.1z" class="st11"/><path d="M78.4,74.5c0,0.7,0.4,1.3,1.1,1.5c2.4,1.1,5.3,2,8.6,2.4h7.1V58.7c0,0-6.6,0.2-5.5,0	c5.5-1.3,16.3-8.2,9.9-14.3c-1.3-0.4-2.9-0.7-4.6-0.7C81.5,44.1,78.4,57.5,78.4,74.5z" class="st12"/><path d="M93.8,84h2.4c2.9,0,5.1-2.2,5.1-5.1l0,0c-0.2-0.2-0.2-0.7-0.2-0.9v-2.9H89.2V78c0,0.2,0,0.7-0.2,0.9l0,0	C88.8,81.8,91.2,84,93.8,84z" class="st13"/><path d="M106.9,60.6l-0.9,9.5c-0.2,1.5-1.1,3.1-2.4,3.7l-6.2,3.5c-1.5,0.9-3.3,0.9-4.6,0l-6.2-3.5	c-1.3-0.7-2.2-2.2-2.4-3.7l-0.9-9.3c0-0.7,0.4-1.3,1.1-1.5c3.1-0.4,11.5-1.5,16.5-4c0.7-0.2,1.3,0,1.8,0.7c0.7,1.1,1.8,2.4,3.3,3.3	C106.6,59.5,106.9,60,106.9,60.6z" class="st14"/><path d="M83.3,60.9l0.9,9.3c0.2,1.5,1.1,3.1,2.4,3.7l6.2,3.5c0.7,0.2,1.1,0.4,1.8,0.4l-2.2-5.5l-0.9-10.1	c0-0.7,0.4-1.3,1.1-1.5c2.9-0.7,6-1.3,8.6-2.4c0.9,1.1,2.2,2.4,4,3.3c0.4,0.2,0.4,0.2,1.8,0.4l0.2-1.5c0-0.4-0.2-1.1-0.7-1.3	c-1.8-0.9-2.9-2.2-3.3-3.3c-0.4-0.7-1.1-0.9-1.8-0.7c-5.1,2.4-13.5,3.5-16.5,4C83.7,59.5,83,60.2,83.3,60.9z" class="st15"/><path d="M102.4,80.5c-0.9-0.4-1.3-1.1-1.5-2.2c-1.3,1.8-3.5,2.9-6,2.9s-4.6-1.1-6-2.9c0,0.9-0.7,1.8-1.5,2.2l-0.7,0.2	c2,2.2,4.9,3.5,7.9,3.5c3.1,0,6.2-1.3,7.9-3.5L102.4,80.5z" class="st16"/><circle cx="124.9" cy="25.4" r="12.1" class="st17"/><path d="M131.5,23.4c-0.2-0.2-0.4-0.4-0.9-0.4c-0.2,0.2-0.4,0.4-0.4,0.9c0.2,0.7,0.4,1.5,0.4,2.2c0,3.3-2.6,6-6,6	s-6-2.6-6-6c0-3.3,2.6-6,6-6c0.4,0,0.9,0,1.3,0.2l-0.9,0.2c-0.2,0.2-0.4,0.4-0.4,0.9c0,0.2,0.2,0.4,0.7,0.4h0.2l2.4-0.9	c0.2-0.2,0.4-0.4,0.4-0.9l-0.9-2.4c-0.2-0.2-0.4-0.4-0.9-0.4c-0.2,0.2-0.4,0.4-0.4,0.9l0.4,1.1c-0.7-0.2-1.3-0.2-2-0.2	c-4,0-7.3,3.3-7.3,7.3s3.3,7.3,7.3,7.3s7.3-3.3,7.3-7.3C132.2,25.1,132,24.3,131.5,23.4z" class="st6"/></svg>