<svg xmlns="http://www.w3.org/2000/svg" width="580" height="400"><g><title>background</title><rect id="canvas_background" width="582" height="402" x="-1" y="-1" fill="#fff"/><g id="canvasGrid" width="100%" height="100%" x="0" y="0" display="none"><rect width="100%" height="100%" x="0" y="0" fill="url(#gridpattern)" stroke-width="0"/></g></g><g><title>Layer 1</title><g id="svg_48" stroke="null" transform="rotate(-90 291.59973144531256,199.47109985351565)"><g id="svg_29" stroke="null" transform="matrix(0.7901995552410468,0,0,0.7901995552410468,-744.6445604661174,-1041.1160000426398)"><g id="svg_30" stroke="null"><path id="svg_31" stroke="null" d="m1436.87038,1794.166756c0,6.8 5.5,12.3 12.3,12.3s12.3,-5.5 12.3,-12.3l0,-418.8l73.6,73.6c2.4,2.4 5.5,3.6 8.7,3.6s6.3,-1.2 8.7,-3.6c4.8,-4.8 4.8,-12.5 0,-17.3l-94.5,-94.5c-4.6,-4.6 -12.7,-4.6 -17.3,0l-94.5,94.5c-4.8,4.8 -4.8,12.5 0,17.3c4.8,4.8 12.5,4.8 17.3,0l73.6,-73.6l0,418.8l-0.2,0z"/><path id="svg_32" stroke="null" d="m1276.57038,1690.966756c-4.8,-4.8 -12.5,-4.8 -17.3,0l-73.6,73.6l0,-418.8c0,-6.8 -5.5,-12.3 -12.3,-12.3s-12.3,5.5 -12.3,12.3l0,418.8l-73.5,-73.6c-4.8,-4.8 -12.5,-4.8 -17.3,0s-4.8,12.5 0,17.3l94.5,94.5c2.4,2.4 5.5,3.6 8.7,3.6s6.3,-1.2 8.7,-3.6l94.5,-94.5c4.6,-4.7 4.6,-12.5 -0.1,-17.3z"/></g></g></g></g></svg>