<svg xmlns="http://www.w3.org/2000/svg" xmlns:xlink="http://www.w3.org/1999/xlink" width="51" height="49" version="1.1" viewBox="0 0 51 49"><title>video-red-dark</title><desc>Created with Sketch.</desc><defs><rect id="path-1" width="43" height="41" x="0" y="0" rx="10"/><filter id="filter-2" width="132.6%" height="134.1%" x="-16.3%" y="-12.2%" filterUnits="objectBoundingBox"><feOffset dx="0" dy="2" in="SourceAlpha" result="shadowOffsetOuter1"/><feGaussianBlur in="shadowOffsetOuter1" result="shadowBlurOuter1" stdDeviation="2"/><feColorMatrix in="shadowBlurOuter1" type="matrix" values="0 0 0 0 0 0 0 0 0 0 0 0 0 0 0 0 0 0 0.5 0"/></filter><linearGradient id="linearGradient-3" x1="100%" x2="0%" y1="50%" y2="50%"><stop offset="0%" stop-color="#EA886D"/><stop offset="100%" stop-color="#E16E91"/></linearGradient><linearGradient id="linearGradient-4" x1="53.16%" x2="50%" y1="100%" y2="12.768%"><stop offset="0%" stop-color="#ED7398"/><stop offset="100%" stop-color="#EA886D"/></linearGradient></defs><g id="Page-1" fill="none" fill-rule="evenodd" stroke="none" stroke-width="1"><g id="video-red-dark" transform="translate(4.000000, 2.000000)"><g id="Rectangle-Copy"><use fill="#000" fill-opacity="1" filter="url(#filter-2)" xlink:href="#path-1"/><use fill="#FFF" fill-rule="evenodd" xlink:href="#path-1"/></g><ellipse id="Oval-Copy" cx="31.067" cy="10.352" fill="url(#linearGradient-3)" rx="1.827" ry="1.742"/><path id="Triangle-Copy" fill="url(#linearGradient-4)" d="M25.3062975,13.3444537 L33.2568182,28.2171222 L33.2568182,28.2171222 C33.7775553,29.1912407 33.410017,30.4030605 32.4358985,30.9237975 C32.1458118,31.0788699 31.8219551,31.16 31.4930208,31.16 L15.5919792,31.16 L15.5919792,31.16 C14.4874097,31.16 13.5919792,30.2645695 13.5919792,29.16 C13.5919792,28.8310657 13.6731093,28.507209 13.8281818,28.2171222 L21.7787025,13.3444537 L21.7787025,13.3444537 C22.2994395,12.3703353 23.5112593,12.002797 24.4853778,12.523534 C24.8341665,12.7099869 25.1198446,12.9956649 25.3062975,13.3444537 Z" transform="translate(23.542500, 20.602500) rotate(90.000000) translate(-23.542500, -20.602500)"/></g></g></svg>